<svg width="27" height="27" viewBox="0 0 27 27" fill="none" xmlns="http://www.w3.org/2000/svg">
<rect width="26.6744" height="26.6744" rx="8.00233" fill="#2C5C12"/>
<path d="M15.6797 15.3443L16.744 15.456V24.1187L13.8043 20.9797V15.9858L14.6581 16.4027L15.6797 15.3443ZM10.9946 15.3443L9.92975 15.456V24.1187L12.8693 20.9797V15.9858L12.0156 16.4027L10.9946 15.3443ZM19.0561 9.91712L19.4005 11.1159L18.3667 11.8129L18.2801 13.0584L17.0703 13.3596L16.5639 14.4993L15.3236 14.3683L14.4575 15.263L13.3371 14.7157L12.2167 15.263L11.3507 14.3654L10.1104 14.4964L9.60401 13.3567L8.39417 13.0584L8.30759 11.8147L7.27081 11.1153L7.61525 9.91656L6.88428 8.90668L7.61759 7.89793L7.27081 6.70154L8.30525 6.00451L8.39182 4.76068L9.60401 4.46246L10.1104 3.32279L11.3507 3.45376L12.2167 2.55615L13.3371 3.10351L14.4575 2.55615L15.3236 3.45376L16.5639 3.32279L17.0703 4.46246L18.2801 4.76364L18.3667 6.00742L19.4005 6.70445L19.0561 7.90323L19.79 8.90668L19.0561 9.91712ZM16.7492 8.90668C16.7492 8.23693 16.5506 7.58221 16.1785 7.02533C15.8064 6.46845 15.2775 6.03441 14.6588 5.77811C14.04 5.52181 13.3591 5.45474 12.7022 5.58541C12.0453 5.71607 11.442 6.03859 10.9684 6.51218C10.4948 6.98577 10.1723 7.58915 10.0416 8.24604C9.91093 8.90293 9.97799 9.58381 10.2343 10.2026C10.4906 10.8214 10.9246 11.3502 11.4815 11.7223C12.0384 12.0944 12.6931 12.293 13.3629 12.293C14.2606 12.2916 15.1211 11.9344 15.7558 11.2996C16.3906 10.6649 16.7478 9.80437 16.7492 8.90668ZM13.3629 6.45592C12.8782 6.45592 12.4043 6.59965 12.0013 6.86894C11.5983 7.13822 11.2842 7.52097 11.0987 7.96878C10.9132 8.41658 10.8647 8.90934 10.9592 9.38473C11.0538 9.86012 11.2872 10.2968 11.6299 10.6395C11.9727 10.9823 12.4093 11.2157 12.8847 11.3103C13.3601 11.4048 13.8529 11.3563 14.3007 11.1708C14.7485 10.9853 15.1313 10.6712 15.4005 10.2682C15.6698 9.8652 15.8136 9.39139 15.8136 8.90668C15.8117 8.25744 15.5529 7.63535 15.0936 7.17643C14.6344 6.71751 14.0121 6.4591 13.3629 6.4577V6.45592Z" fill="white"/>
</svg>
