<svg width="30" height="30" viewBox="0 0 30 30" fill="none" xmlns="http://www.w3.org/2000/svg">
<rect width="30" height="30" rx="9" fill="#252525"/>
<path d="M15 12.0591V9.50011C14.9997 9.30249 14.9409 9.10938 14.831 8.94513C14.7211 8.78087 14.565 8.65282 14.3825 8.57711C14.2 8.5014 13.9991 8.48141 13.8052 8.51967C13.6113 8.55793 13.4331 8.65273 13.293 8.79211L7 15.0001L13.293 21.2071C13.3857 21.3003 13.4958 21.3742 13.6171 21.4247C13.7385 21.4752 13.8686 21.5011 14 21.5011C14.1314 21.5011 14.2615 21.4752 14.3829 21.4247C14.5042 21.3742 14.6143 21.3003 14.707 21.2071C14.8945 21.0196 14.9999 20.7653 15 20.5001V18.0111C17.75 18.0791 20.755 18.5771 23 22.0001V21.0001C23 16.3671 19.5 12.5571 15 12.0591Z" fill="white"/>
</svg>
