<svg width="27" height="27" viewBox="0 0 27 27" fill="none" xmlns="http://www.w3.org/2000/svg">
<rect width="26.6744" height="26.6744" rx="8.00233" fill="#252525"/>
<path d="M12.2924 22.2285C11.8923 22.2285 11.5479 22.0951 11.2592 21.8284C10.9705 21.5616 10.7962 21.2356 10.7364 20.8503L10.5363 19.3832C10.3437 19.3091 10.1623 19.2202 9.99215 19.1165C9.82203 19.0128 9.65516 18.9016 9.49156 18.7831L8.11338 19.361C7.7429 19.524 7.37242 19.5388 7.00195 19.4055C6.63147 19.2721 6.34249 19.035 6.13503 18.6941L5.09028 16.8714C4.88281 16.5306 4.82353 16.1675 4.91245 15.7822C5.00136 15.3969 5.20142 15.0783 5.51262 14.8264L6.69074 13.9372C6.67592 13.8335 6.66851 13.7333 6.66851 13.6367V13.0365C6.66851 12.9405 6.67592 12.8406 6.69074 12.7369L5.51262 11.8477C5.20142 11.5958 5.00136 11.2772 4.91245 10.8919C4.82353 10.5066 4.88281 10.1435 5.09028 9.80267L6.13503 7.97992C6.34249 7.63908 6.63147 7.40197 7.00195 7.2686C7.37242 7.13523 7.7429 7.15005 8.11338 7.31306L9.49156 7.891C9.65457 7.77245 9.82499 7.66131 10.0028 7.55757C10.1806 7.45384 10.3585 7.36492 10.5363 7.29083L10.7364 5.82374C10.7956 5.43844 10.9699 5.11242 11.2592 4.84567C11.5485 4.57893 11.8928 4.44556 12.2924 4.44556H14.3819C14.782 4.44556 15.1267 4.57893 15.4159 4.84567C15.7052 5.11242 15.8792 5.43844 15.9379 5.82374L16.1379 7.29083C16.3306 7.36492 16.5123 7.45384 16.683 7.55757C16.8537 7.66131 17.0203 7.77245 17.1827 7.891L18.5609 7.31306C18.9313 7.15005 19.3018 7.13523 19.6723 7.2686C20.0428 7.40197 20.3318 7.63908 20.5392 7.97992L21.584 9.80267C21.7914 10.1435 21.8507 10.5066 21.7618 10.8919C21.6729 11.2772 21.4728 11.5958 21.1616 11.8477L19.9835 12.7369C19.9983 12.8406 20.0057 12.9408 20.0057 13.0374V13.6367C20.0057 13.7333 19.9909 13.8335 19.9613 13.9372L21.1394 14.8264C21.4506 15.0783 21.6507 15.3969 21.7396 15.7822C21.8285 16.1675 21.7692 16.5306 21.5617 16.8714L20.4948 18.6941C20.2873 19.035 19.9983 19.2721 19.6278 19.4055C19.2574 19.5388 18.8869 19.524 18.5164 19.361L17.1827 18.7831C17.0197 18.9016 16.8493 19.0128 16.6714 19.1165C16.4936 19.2202 16.3158 19.3091 16.1379 19.3832L15.9379 20.8503C15.8786 21.2356 15.7046 21.5616 15.4159 21.8284C15.1273 22.0951 14.7826 22.2285 14.3819 22.2285H12.2924ZM13.3816 16.449C14.2411 16.449 14.9746 16.1453 15.5822 15.5377C16.1898 14.9301 16.4936 14.1965 16.4936 13.337C16.4936 12.4775 16.1898 11.744 15.5822 11.1364C14.9746 10.5288 14.2411 10.225 13.3816 10.225C12.5073 10.225 11.7699 10.5288 11.1694 11.1364C10.5689 11.744 10.269 12.4775 10.2696 13.337C10.2702 14.1965 10.5704 14.9301 11.1703 15.5377C11.7701 16.1453 12.5073 16.449 13.3816 16.449Z" fill="white"/>
</svg>
